<svg xmlns="http://www.w3.org/2000/svg" viewBox="0 0 960 1100" font-family="Segoe UI,system-ui,sans-serif">
  <defs>
    <marker id="a" markerWidth="8" markerHeight="6" refX="8" refY="3" orient="auto">
      <path d="M0,0 L8,3 L0,6" fill="none" stroke="#6b7280" stroke-width="1.2"/>
    </marker>
    <marker id="ap" markerWidth="8" markerHeight="6" refX="8" refY="3" orient="auto">
      <path d="M0,0 L8,3 L0,6" fill="none" stroke="#fd79a8" stroke-width="1.3"/>
    </marker>
    <linearGradient id="glowPink" x1="0" x2="0" y1="0" y2="1">
      <stop offset="0" stop-color="#fd79a8" stop-opacity="0.18"/>
      <stop offset="1" stop-color="#a29bfe" stop-opacity="0.08"/>
    </linearGradient>
  </defs>

  <!-- Background -->
  <rect width="960" height="1100" rx="14" fill="#0a0a12"/>

  <!-- Version -->
  <text x="920" y="26" text-anchor="end" fill="#4b5563" font-size="10" font-family="monospace">v0.8.1</text>
  <text x="40" y="26" fill="#4b5563" font-size="10" font-family="monospace">KAOS Architecture</text>

  <!-- ═══ 1 · INTERFACES ═══ -->
  <text x="40" y="56" fill="#9ca3af" font-size="11" font-weight="700" letter-spacing="2">1 · INTERFACES</text>

  <rect x="40" y="68" width="200" height="56" rx="8" fill="#1a1730" stroke="#8b7cf7" stroke-width="1.5"/>
  <text x="140" y="92" text-anchor="middle" fill="#a29bfe" font-size="13" font-weight="600">CLI</text>
  <text x="140" y="110" text-anchor="middle" fill="#6b7280" font-size="10">35+ commands · --json</text>

  <rect x="260" y="68" width="200" height="56" rx="8" fill="#1a1730" stroke="#8b7cf7" stroke-width="1.5"/>
  <text x="360" y="92" text-anchor="middle" fill="#a29bfe" font-size="13" font-weight="600">MCP Server</text>
  <text x="360" y="110" text-anchor="middle" fill="#6b7280" font-size="10">45 tools · stdio / SSE</text>

  <rect x="480" y="68" width="200" height="56" rx="8" fill="#1a1730" stroke="#8b7cf7" stroke-width="1.5"/>
  <text x="580" y="92" text-anchor="middle" fill="#a29bfe" font-size="13" font-weight="600">Python SDK</text>
  <text x="580" y="110" text-anchor="middle" fill="#6b7280" font-size="10">from kaos import Kaos</text>

  <rect x="700" y="68" width="220" height="56" rx="8" fill="#1a1730" stroke="#8b7cf7" stroke-width="1.5"/>
  <text x="810" y="92" text-anchor="middle" fill="#a29bfe" font-size="13" font-weight="600">Dashboard &amp; Obsidian</text>
  <text x="810" y="110" text-anchor="middle" fill="#6b7280" font-size="10">TUI · web · vault export</text>

  <path d="M360,124 L360,160" fill="none" stroke="#4b5563" stroke-width="1.5" marker-end="url(#a)"/>

  <!-- ═══ 2 · ORCHESTRATION ═══ -->
  <line x1="40" y1="150" x2="920" y2="150" stroke="#1f2937" stroke-width="1" stroke-dasharray="4,4"/>
  <text x="40" y="178" fill="#9ca3af" font-size="11" font-weight="700" letter-spacing="2">2 · ORCHESTRATION</text>

  <rect x="40" y="190" width="200" height="56" rx="8" fill="#0d1a2a" stroke="#3b82f6" stroke-width="1.5"/>
  <text x="140" y="213" text-anchor="middle" fill="#60a5fa" font-size="13" font-weight="600">Claude Code Runner</text>
  <text x="140" y="230" text-anchor="middle" fill="#6b7280" font-size="10">plan → act → observe loop</text>

  <rect x="260" y="190" width="170" height="56" rx="8" fill="#0d1a2a" stroke="#3b82f6" stroke-width="1.5"/>
  <text x="345" y="213" text-anchor="middle" fill="#60a5fa" font-size="13" font-weight="600">Intake (--ask)</text>
  <text x="345" y="230" text-anchor="middle" fill="#6b7280" font-size="10">dynamic clarifying Qs</text>

  <rect x="450" y="190" width="170" height="56" rx="8" fill="#0d1a2a" stroke="#3b82f6" stroke-width="1.5"/>
  <text x="535" y="213" text-anchor="middle" fill="#60a5fa" font-size="13" font-weight="600">GEPA Router</text>
  <text x="535" y="230" text-anchor="middle" fill="#6b7280" font-size="10">classify → route model</text>

  <rect x="640" y="190" width="280" height="56" rx="8" fill="#0d1a2a" stroke="#3b82f6" stroke-width="1.5"/>
  <text x="780" y="209" text-anchor="middle" fill="#60a5fa" font-size="13" font-weight="600">5 Providers (raw httpx)</text>
  <text x="780" y="225" text-anchor="middle" fill="#6b7280" font-size="10">local · openai · anthropic</text>
  <text x="780" y="238" text-anchor="middle" fill="#6b7280" font-size="10">claude_code · agent_sdk</text>

  <path d="M140,246 L140,280" fill="none" stroke="#4b5563" stroke-width="1.5" marker-end="url(#a)"/>

  <!-- ═══ 3 · META-HARNESS ═══ -->
  <line x1="40" y1="268" x2="920" y2="268" stroke="#1f2937" stroke-width="1" stroke-dasharray="4,4"/>
  <text x="40" y="296" fill="#9ca3af" font-size="11" font-weight="700" letter-spacing="2">3 · META-HARNESS · evolutionary search + CORAL co-evolution</text>

  <rect x="40" y="308" width="168" height="56" rx="8" fill="#1a0f24" stroke="#c084fc" stroke-width="1.5"/>
  <text x="124" y="331" text-anchor="middle" fill="#d8b4fe" font-size="12" font-weight="600">Search Loop</text>
  <text x="124" y="348" text-anchor="middle" fill="#6b7280" font-size="10">Algorithm 1 orchestrator</text>

  <rect x="218" y="308" width="168" height="56" rx="8" fill="#1a0f24" stroke="#c084fc" stroke-width="1.5"/>
  <text x="302" y="331" text-anchor="middle" fill="#d8b4fe" font-size="12" font-weight="600">Worker</text>
  <text x="302" y="348" text-anchor="middle" fill="#6b7280" font-size="10">detached subprocess</text>

  <rect x="396" y="308" width="168" height="56" rx="8" fill="#1a0f24" stroke="#c084fc" stroke-width="1.5"/>
  <text x="480" y="331" text-anchor="middle" fill="#d8b4fe" font-size="12" font-weight="600">Proposer Agent</text>
  <text x="480" y="348" text-anchor="middle" fill="#6b7280" font-size="10">reads archive → proposes</text>

  <rect x="574" y="308" width="168" height="56" rx="8" fill="#1a0f24" stroke="#c084fc" stroke-width="1.5"/>
  <text x="658" y="331" text-anchor="middle" fill="#d8b4fe" font-size="12" font-weight="600">Evaluator</text>
  <text x="658" y="348" text-anchor="middle" fill="#6b7280" font-size="10">llm() injectable · traces</text>

  <rect x="752" y="308" width="168" height="56" rx="8" fill="#1a0f24" stroke="#c084fc" stroke-width="1.5"/>
  <text x="836" y="331" text-anchor="middle" fill="#d8b4fe" font-size="12" font-weight="600">Pareto Frontier</text>
  <text x="836" y="348" text-anchor="middle" fill="#6b7280" font-size="10">multi-objective best</text>

  <path d="M480,364 L480,398" fill="none" stroke="#4b5563" stroke-width="1.5" marker-end="url(#a)"/>

  <!-- ═══ 4 · NEUROPLASTICITY ═══ NEW LAYER -->
  <line x1="40" y1="386" x2="920" y2="386" stroke="#fd79a8" stroke-width="1" stroke-dasharray="4,4" opacity="0.4"/>
  <text x="40" y="414" fill="#fd79a8" font-size="11" font-weight="700" letter-spacing="2">4 · NEUROPLASTICITY · continuous consolidation · NEW v0.8.1</text>

  <!-- Ambient pink frame -->
  <rect x="32" y="424" width="896" height="172" rx="12" fill="url(#glowPink)" stroke="#fd79a8" stroke-width="1" stroke-opacity="0.3"/>

  <!-- Row 1: Inline hooks (fast / synaptic) -->
  <text x="48" y="450" fill="#fd79a8" font-size="10" font-weight="700" letter-spacing="1.5">INLINE HOOKS · synaptic (fast, &lt; 20 µs)</text>

  <rect x="48" y="458" width="280" height="48" rx="8" fill="#2a0e1e" stroke="#fd79a8" stroke-width="1.2"/>
  <text x="188" y="478" text-anchor="middle" fill="#fbcfe8" font-size="12" font-weight="600">record_outcome()</text>
  <text x="188" y="495" text-anchor="middle" fill="#9ca3af" font-size="10">→ skill_uses row</text>

  <rect x="340" y="458" width="280" height="48" rx="8" fill="#2a0e1e" stroke="#fd79a8" stroke-width="1.2"/>
  <text x="480" y="478" text-anchor="middle" fill="#fbcfe8" font-size="12" font-weight="600">memory.search(record_hits=T)</text>
  <text x="480" y="495" text-anchor="middle" fill="#9ca3af" font-size="10">→ memory_hits row</text>

  <rect x="632" y="458" width="280" height="48" rx="8" fill="#2a0e1e" stroke="#fd79a8" stroke-width="1.2"/>
  <text x="772" y="478" text-anchor="middle" fill="#fbcfe8" font-size="12" font-weight="600">complete() / fail() / kill()</text>
  <text x="772" y="495" text-anchor="middle" fill="#9ca3af" font-size="10">→ episode_signals + fingerprint</text>

  <!-- Row 2: Batched structural (slow / sleep) -->
  <text x="48" y="528" fill="#a29bfe" font-size="10" font-weight="700" letter-spacing="1.5">BATCHED AT COMPLETION · structural (slow, ~1 ms)</text>

  <rect x="48" y="536" width="178" height="48" rx="8" fill="#1a1730" stroke="#a29bfe" stroke-width="1.2"/>
  <text x="137" y="556" text-anchor="middle" fill="#c4b5fd" font-size="11" font-weight="600">Hebbian graph</text>
  <text x="137" y="572" text-anchor="middle" fill="#9ca3af" font-size="9">associations table</text>

  <rect x="236" y="536" width="178" height="48" rx="8" fill="#1a1730" stroke="#a29bfe" stroke-width="1.2"/>
  <text x="325" y="556" text-anchor="middle" fill="#c4b5fd" font-size="11" font-weight="600">Failure triage</text>
  <text x="325" y="572" text-anchor="middle" fill="#9ca3af" font-size="9">8 heuristic diagnosers</text>

  <rect x="424" y="536" width="178" height="48" rx="8" fill="#1a1730" stroke="#a29bfe" stroke-width="1.2"/>
  <text x="513" y="556" text-anchor="middle" fill="#c4b5fd" font-size="11" font-weight="600">Weighted search</text>
  <text x="513" y="572" text-anchor="middle" fill="#9ca3af" font-size="9">BM25 × Wilson × recency</text>

  <rect x="612" y="536" width="178" height="48" rx="8" fill="#1a1730" stroke="#a29bfe" stroke-width="1.2"/>
  <text x="701" y="556" text-anchor="middle" fill="#c4b5fd" font-size="11" font-weight="600">Systemic alerts</text>
  <text x="701" y="572" text-anchor="middle" fill="#9ca3af" font-size="9">sliding-window count</text>

  <rect x="800" y="536" width="118" height="48" rx="8" fill="#1a1730" stroke="#a29bfe" stroke-width="1.2"/>
  <text x="859" y="556" text-anchor="middle" fill="#c4b5fd" font-size="11" font-weight="600">Dream cycle</text>
  <text x="859" y="572" text-anchor="middle" fill="#9ca3af" font-size="9">7 phases</text>

  <path d="M480,596 L480,630" fill="none" stroke="#fd79a8" stroke-width="1.5" marker-end="url(#ap)"/>

  <!-- ═══ 5 · KNOWLEDGE SURFACES ═══ -->
  <line x1="40" y1="618" x2="920" y2="618" stroke="#1f2937" stroke-width="1" stroke-dasharray="4,4"/>
  <text x="40" y="646" fill="#9ca3af" font-size="11" font-weight="700" letter-spacing="2">5 · KNOWLEDGE SURFACES · what agents actually read and write</text>

  <rect x="40" y="658" width="215" height="56" rx="8" fill="#081a1c" stroke="#18ffff" stroke-width="1.5"/>
  <text x="148" y="681" text-anchor="middle" fill="#5eead4" font-size="13" font-weight="600">SkillStore</text>
  <text x="148" y="699" text-anchor="middle" fill="#6b7280" font-size="10">procedural templates · FTS5</text>

  <rect x="265" y="658" width="215" height="56" rx="8" fill="#081a1c" stroke="#18ffff" stroke-width="1.5"/>
  <text x="373" y="681" text-anchor="middle" fill="#5eead4" font-size="13" font-weight="600">MemoryStore</text>
  <text x="373" y="699" text-anchor="middle" fill="#6b7280" font-size="10">episodic · FTS5 · BM25</text>

  <rect x="490" y="658" width="215" height="56" rx="8" fill="#081a1c" stroke="#18ffff" stroke-width="1.5"/>
  <text x="598" y="681" text-anchor="middle" fill="#5eead4" font-size="13" font-weight="600">SharedLog (LogAct)</text>
  <text x="598" y="699" text-anchor="middle" fill="#6b7280" font-size="10">intent → vote → decide</text>

  <rect x="715" y="658" width="205" height="56" rx="8" fill="#081a1c" stroke="#18ffff" stroke-width="1.5"/>
  <text x="817" y="681" text-anchor="middle" fill="#5eead4" font-size="13" font-weight="600">Failure index</text>
  <text x="817" y="699" text-anchor="middle" fill="#6b7280" font-size="10">fingerprints · diagnoses</text>

  <path d="M480,714 L480,748" fill="none" stroke="#4b5563" stroke-width="1.5" marker-end="url(#a)"/>

  <!-- ═══ 6 · KAOS CORE ═══ -->
  <line x1="40" y1="736" x2="920" y2="736" stroke="#1f2937" stroke-width="1" stroke-dasharray="4,4"/>
  <text x="40" y="764" fill="#9ca3af" font-size="11" font-weight="700" letter-spacing="2">6 · KAOS CORE · VFS ENGINE</text>

  <rect x="40" y="776" width="215" height="56" rx="8" fill="#0a1f18" stroke="#10b981" stroke-width="1.5"/>
  <text x="148" y="800" text-anchor="middle" fill="#34d399" font-size="13" font-weight="600">Namespace</text>
  <text x="148" y="818" text-anchor="middle" fill="#6b7280" font-size="10">SQL-scoped isolation</text>

  <rect x="265" y="776" width="215" height="56" rx="8" fill="#0a1f18" stroke="#10b981" stroke-width="1.5"/>
  <text x="373" y="800" text-anchor="middle" fill="#34d399" font-size="13" font-weight="600">Blob Store</text>
  <text x="373" y="818" text-anchor="middle" fill="#6b7280" font-size="10">SHA-256 · zstd</text>

  <rect x="490" y="776" width="215" height="56" rx="8" fill="#0a1f18" stroke="#10b981" stroke-width="1.5"/>
  <text x="598" y="800" text-anchor="middle" fill="#34d399" font-size="13" font-weight="600">Event Journal</text>
  <text x="598" y="818" text-anchor="middle" fill="#6b7280" font-size="10">append-only audit</text>

  <rect x="715" y="776" width="205" height="56" rx="8" fill="#0a1f18" stroke="#10b981" stroke-width="1.5"/>
  <text x="817" y="800" text-anchor="middle" fill="#34d399" font-size="13" font-weight="600">Checkpoints</text>
  <text x="817" y="818" text-anchor="middle" fill="#6b7280" font-size="10">snapshot · restore · diff</text>

  <rect x="40" y="842" width="215" height="56" rx="8" fill="#0a1f18" stroke="#10b981" stroke-width="1.5"/>
  <text x="148" y="866" text-anchor="middle" fill="#34d399" font-size="13" font-weight="600">State KV Store</text>
  <text x="148" y="884" text-anchor="middle" fill="#6b7280" font-size="10">JSON-serialisable</text>

  <rect x="265" y="842" width="215" height="56" rx="8" fill="#0a1f18" stroke="#10b981" stroke-width="1.5"/>
  <text x="373" y="866" text-anchor="middle" fill="#34d399" font-size="13" font-weight="600">Tool Registry</text>
  <text x="373" y="884" text-anchor="middle" fill="#6b7280" font-size="10">built-in · permissions</text>

  <rect x="490" y="842" width="215" height="56" rx="8" fill="#0a1f18" stroke="#10b981" stroke-width="1.5"/>
  <text x="598" y="866" text-anchor="middle" fill="#34d399" font-size="13" font-weight="600">Context Compactor</text>
  <text x="598" y="884" text-anchor="middle" fill="#6b7280" font-size="10">AAAK · MemPalace</text>

  <rect x="715" y="842" width="205" height="56" rx="8" fill="#0a1f18" stroke="#10b981" stroke-width="1.5"/>
  <text x="817" y="866" text-anchor="middle" fill="#34d399" font-size="13" font-weight="600">FUSE Isolation</text>
  <text x="817" y="884" text-anchor="middle" fill="#6b7280" font-size="10">Linux · optional</text>

  <path d="M480,898 L480,935" fill="none" stroke="#4b5563" stroke-width="1.5" marker-end="url(#a)"/>

  <!-- ═══ 7 · STORAGE ═══ -->
  <line x1="40" y1="923" x2="920" y2="923" stroke="#1f2937" stroke-width="1" stroke-dasharray="4,4"/>
  <text x="40" y="951" fill="#9ca3af" font-size="11" font-weight="700" letter-spacing="2">7 · STORAGE · single SQLite file · schema v6</text>

  <rect x="40" y="963" width="880" height="84" rx="8" fill="#1f140d" stroke="#f97316" stroke-width="1.5"/>
  <text x="480" y="989" text-anchor="middle" fill="#fb923c" font-size="14" font-weight="600">SQLite (.db) — WAL mode · portable · queryable · crash-safe</text>
  <text x="480" y="1010" text-anchor="middle" fill="#9ca3af" font-size="10">agents · files · blobs · tool_calls · state · events · checkpoints · memory · shared_log · agent_skills · skill_uses · memory_hits</text>
  <text x="480" y="1028" text-anchor="middle" fill="#fbcfe8" font-size="10">episode_signals · associations · failure_fingerprints · failure_occurrences · systemic_alerts · consolidation_proposals · policies · dream_runs</text>
  <text x="480" y="1042" text-anchor="middle" fill="#6b7280" font-size="9">17 tables + 2 FTS5 indexes · additive migrations · in-place upgrade</text>

  <!-- Side callout: plasticity feedback arrow from storage back up into knowledge -->
  <path d="M930,1000 C965,1000 965,680 930,680" fill="none" stroke="#fd79a8" stroke-width="1.3" stroke-dasharray="5,3" opacity="0.7"/>
  <text x="950" y="840" text-anchor="middle" fill="#fd79a8" font-size="9" transform="rotate(90 950 840)" font-weight="600">feedback loop</text>
</svg>
